<mxfile host="Electron" modified="2024-08-06T16:23:52.079Z" agent="Mozilla/5.0 (Windows NT 10.0; Win64; x64) AppleWebKit/537.36 (KHTML, like Gecko) draw.io/24.5.1 Chrome/124.0.6367.207 Electron/30.0.6 Safari/537.36" etag="mEC9ZkSkgpVodx68kXRK" version="24.5.1" type="device">
  <diagram name="Page-1" id="axMPR6k4is1XZVGS7nOm">
    <mxGraphModel dx="2060" dy="1182" grid="1" gridSize="10" guides="1" tooltips="1" connect="1" arrows="1" fold="1" page="1" pageScale="1" pageWidth="1100" pageHeight="850" math="0" shadow="0">
      <root>
        <mxCell id="0" />
        <mxCell id="1" parent="0" />
        <mxCell id="hDu2MGbcMj-w8NL_doau-4" style="edgeStyle=orthogonalEdgeStyle;rounded=0;orthogonalLoop=1;jettySize=auto;html=1;exitX=0.5;exitY=0;exitDx=0;exitDy=0;entryX=0.5;entryY=0;entryDx=0;entryDy=0;" edge="1" parent="1" target="cCBc7BO_u6sRVNhpNow7-1">
          <mxGeometry relative="1" as="geometry">
            <mxPoint x="881" y="240" as="sourcePoint" />
          </mxGeometry>
        </mxCell>
        <mxCell id="cCBc7BO_u6sRVNhpNow7-1" value="" style="shape=image;verticalLabelPosition=bottom;labelBackgroundColor=default;verticalAlign=top;aspect=fixed;imageAspect=0;image=data:image/png,iVBORw0KGgoAAAANSUhEUgAAARoAAAAwCAYAAADO87VeAAAAAXNSR0IArs4c6QAAAARnQU1BAACxjwv8YQUAAAAJcEhZcwAADsMAAA7DAcdvqGQAAAASdEVYdFNvZnR3YXJlAEdyZWVuc2hvdF5VCAUAAB48SURBVHhe7Z35z6Vlecf7R1RrEXBYBmbjnXfmnX0fZmfG2WcYARULtLGtSxOtkrRJfyDWgguLthU0MWljpC6JRjAVi2CMKJCIqGxtIwhpBCubgIrL3ef7nPM58z0X1/2c81qXM2lP8s19X99rva/nea73OWdo/b3yG/788pe/LL/4xS/Kz3/+8/Kzn/2s/PSnPy0//vGPy3PPPVeeeeaZ8oMf/KA89thj5cEHHyx33313ue6668rSpUvLzMxMuy5ZsqRdnRtgSaOf7tAvlW5JE2O6lXsr8nG/JdM9/dC+yat4rawaQh3uM4Smpp5ePs1+ab+mZu82Azns/bzCdBNnScsP7wXpWbFV7pf24aWYDvUvW7ZsSM5i4KN1nBxAtjGfoJzidWbZaPXz62w9fvicyN4P5x3wA98+ppWrWRdTV8ivlZq9JurVnh4sXrx4yE5rNX+zl73H1J64HgO9y+SK9tTqoO+y8bpbzBzPCxdjDtmPqWfvOu0nctDoBlSTHHBt4c0NNr24f7PbRUTP4WIjHLJVY+IDhs5lHypRBzeUSzVFYKvB0+cYQkPDyGzjg6Q8vbp7PHajkPWhqzeAHmKb+bykV2YroPe9Q9cAnmuhs8Fp5axx0Ari0Gld2vQS+8XNPQKvodLTN1BsxWXfrBo8M8rf1/lD5Whj9dccvXiRo95hjtqHH1DPBec67eUDoh2cZLcZkptBgy16IbtGArGJoRXO/eEAuokcNBTnNxuFR0gX9fGw0kcOHl9vXAbXuQ8cGAwu3VTcWHHfrIPh0odiMjyJ77qBTfPgAHHZoPQL3wXF6zozkE2sCR5EvXPaw2dxnI+1u72f3Xn2Wnmg27/8jUyf/C2GNUJ8L8/xB0lx2gHU8OjYC9j5GXvIhksm93JEf2RiZ9cUG3Tu4/YDvnmLd366/6bv/hHieYvCxtfo69cFvfiJHDQULXjRwoDTRWxuIoHD4RNlfP2hjA0Bbp/JoHdTD+uGYnJDaa3sNWzamvo85xnE6ENxeWAAMmciN3UJusixTu3l4/bwbuN7bATysWLrNiCL7TyIeofbZjkyXvLQ8GjkwRBpVvGDN5dGdo5Vw4W64gqQeZg0XAaDrX+dGTY9mTp7qzh8Yyzknh0xh9eopw+StVcsyW1M/WTQR8s1Q0aYWaYzN1zzhoM9MYg7FKfPkwud5Lbvjc7tpBMm9jcaBweIvIODCzRCDwN+Xf40CbnLhwdsHLRDQzdZ/+bTYGkHI6vO1bdxv5bvqBfEOjmH18i50MHDyZcVfpzcjmgf88D5TRl1Wmt5x6kns/Fhw6CBczivfWtr9RI7PmiC9seHbt+/uaY+cOB92MAL5HGQB2BDDeyxdR7A+XBpdfp9huHScIun+78xYZfEQtbKublu1KGVPTowcYPm2muvHSqUNf4FzeA67YHkePAYJ+rJl/mJy+L63nMzSBgyrV2fw6cWJ9ODoRx9mX1m/+sAN5JDvSI3q99wPvjgtHq9zkdEO4d0WU2gra2/580FOXLtW4zxXo/25GH1s2pg6DchvjL1eOkVoxdHMsNFci8GOD6wHHCck68xsSdeC/U5P0AzXDRY9CbT6vvDBV3LNT7kQ9b5YyzvyShM7KDJDjDpNzT7LM7gzaVBtPV6tMc/xkFWHe5DDLjoF6H82AM46eUfcwguy6Yrj2wVI14TdC57nKiDG3Um4P7sWbuGTMvJrgE8dqMQ7wsNDt5oIu8ybz74a4199bNrdVsBPXvsQGvfHyBDw6XPafU3Hu1By1k+reSAUw5kIBvsWCdq0Nx1113toFFx8QB+wBqyQ2cciM1w1PJnD46APbULmQ8XDFvPTYyYO8pdIBc+yFrFCZ4TxFpAllt2iocPcWv28FFHvswnq8W5rjzZA8BAARomPmja/vT3svdzac91Q/bYgg8W3lKwY/Bkg6YX+7iOnD19Pnj8Gjuos5XjwNDXJg0X3lr6vMsgOx9A5/cxvHOSPc7EDhoKjFATM34c4EtDsjxcsMix5wFTjK46I+KFEWpnUVyPjW+091pZGSjosXUb56MNyGyjTmvNv4bYB4/ltcM70LmN23ktvo92gKHiw6YdPn1gp5q53lmcCNn44Ol9pVKc49cr2wNxrA5x3j9qct3gq1V/YGjVkOFthR9//e0Fe/ajEHvrdbjeuRNm0Kj4jHd4AyJqvjUf2Uedy37BM1nwnO5b29fgcdhntcUzYqPV9dQq2eNo738t2bve14xXTK9DHJDsOb1nbhN16Gcjx9q7oJqy65fBz+aI+b3HziNjH/3AKL8aH/0Ag6V9s2lkBguyUPMFtdxa43m8/9JP5KChQBAPoRVEm3EgWx2+62aUnkZGu3gTsWbwOCDWKn1Wv/tK33VG17kPHBj3AYw1S9a5vSbXsVInubN8s3moszNEyCbWBA+i3jnt4bM4zrut8+iA8+ydo5cej71zjkyvON5j6RQXwEd06SL8fq/51WqWvXS/8UGjISNoyLz44ovtoHnhhRfaQfP000+XJ554ojz66KPlgQceqA4aoIKzA43TtGgz24YJrqv5ZzxczccRbZB1M5FfXFYnnG4M7ZG7bBULOO9A7zrt8UFmX0PMEX08h8eOqOWKD5zLXfGE2eSr5Y/IYoqr5XLe7Zwnt9cQ/dB7DNdlg172HjP+gch8Imq1ST4hBo0X7vAmRjnqhHGalfkp/7Jly8uKVWvK2g1byvrN28rGc3eUjVsidvYR+MZWPvJdvmJlk6N3EbvOFXUux3Nk5/JzuG9tX0PW06y22DdstLqeWiV7HO25uX3vel8zXjG9DnFAsuf0nrlN1KGfjRxr74Jqyq5fBj+bI+b3HjuPjH30A6P8anz0A9JP7KBRcV0XQPoIHRS4Xa0BoEvfxmuGzJr1m8vmrbvKtl17y849B8uuVx8q5+09PCYOtT7y3bR1Z1m9blMTNx821BJrcjv2uqEzPqIW01F7OMTrOtRiA+kVP8bpyindqLju7znw6/KXbfT31VE7f4YYh3PE1X3cLvIR2LDKT/AaJbsOHi6rY5zcjmgf88CNM9gmctBkBxoFP5TzkqNOa7RzDOkb31VrNzZD5ryyc/eBsmf/0bLv0GvKvsMXlP1HLiwHWlzUgQvL/sMXtj579p/fxtDAWrVmQxs75ha8tlovMh6u5uOINsj+EIvL+gTHAELuslUs4LwDveu0xweZfQ0xR/TxHB47opbLH3jZZAOghtnkq+WPyGKKq+Vy3u2cJ7fXEP3QewzX+YvCRA2aO++8s1xzzTVDhxC84HigcS8yumjjjfSmCZKXrVhV1m/a2r6N9IbMBeXA0YvKwaOvLQfPf205dP7rOiEb2R5oIF/FUKx1G7c2b0orXlJDrb7IO6gbW2R8XIYD6p/30Htdg8fwHHBAceGzvJlPRPSTLMhXMWK96CJXk7Xn/B4XvZDVOar2mFPIfLBj1XnI7/bss7jCqHoiYv+R6YHbjooda3KZeBM5aGKxXnTGo/M9svM0zBsX/dATY/mqde1vLDt27y+vbt5INCz0hvKrQL6KsaN5q9nQxFy2cu0gd602lwH1YQMn/C6Hstu6XcZ7bNnU7IRom/Gui7xDNl4vMj4uwwH1z3v4/0N5/KE8sYNmXNQOFrkI2QDkaKNmtoNmy85mOBxs30ZefeBYC30NAnAZoo32O5tYirls5bpBrix/rM0vum6aWs3YscpONwS6zG8cEG9criuXdJmvIB+Q6XwvEKcmY+8PRVfuLhnIP+pqMWuQvdcU6wVZLmR/8FmJo3sk+mrPveB+0cb32AjkY8XWbYDHnshBo8L8gPGwwHm/YHDuI1v2kWN1ex7kmRVry4bNO8r28/aX8/YeKRddfFl581/8ZXnTW3v487e8reWF3fuOttBeQ0X6N/ft3vTWt5cLXntJ+yOy3mg2nruzjU2+mH8cTmt2LnSZryAfkOl8LxCnJmOfXYMIt89kIP+oq8WsQfZeU6wXZLmQ8Sc3tsIkPcgZD6Le4bZZjox3mfrJ4fXCCyfkGw2HAbERcLwqRj1yjAOG+OVryrpN28rWnXvL0QsuLvd881vlRZ3F8MF/uL5s37WvfevZuedQM2yOlBs+8tGX2N1625fL3gPnt7E0vJYsWz3Ix0UZ5O3z7KWnbn94BNlFXxDPLsS4rgPYsMb6tH/nO99ZbrrppkFtrsdGKzmw4brU7CLcXyv2Wmu+8F3wPrq97xVXiBz7mAddrEeo1SS+FgdIn8UEv4qOnJleXK3eUcDX+3vCDZrZNHSUzMXrijk9s7L97182b9tdLr70jeXZ518o32iGzb4DR8rBI+eX+x/69/LDp58pV73vmnLu9j1lWzNwrv3gP7acdAcOHS0HDp9fnnnu+fLfTz1djl10cdm09bz2x2DFjvmopaumG264oe2tVud1YXkTcz6Cc8eBFXNeeeWV5ZFHHhnoYlwNGf1X3sju7znw66pLtsp12223tbL7qA59sPW65aMadu/ePeAcH//4x1tfxZDMOeIa/Wp8BDas8hO8Rsmug4fL6hgntyPaxzxwv5Y/vhV02UzsoFHRFB4P4BdRulrTRvG1xkiPbmrJ8rJq3eayofmqc+HrLy1PPPlUM2CONV971pSVazaWFWs2lG9869vlir+9sqzfvL28/fK/bm3u+fZ9zSBZUZav3lBWrN5Yvti8zTz+w6fK4WMXtW8za9af28aOuR3UEM9x7733tr3T6rzs4tuCoxYPfP3rXx886IIPmnGQ9bWrx5Fj0ER/HzTRTz7qxc033zzgsFEvvv/977eDyAeNr4qf1eL6yGWonTNCMQSuE37UEXN4fdqDqHcOviZ7fmT2xIOPfq6DB9m9x7M6sYOGg/hQifBDs6cxcN4o30fUdOcsXtYMk43NG8i25m3kDeWR/3q8HDp6QTtk1jcDY23zZrKhGTAaHFt27Cn3/8d3yxdu/XLZtGVHY7OprN+0vfX9/L99qTzc+B448ppWXrl2U1m0uFcjtUdk/K5du9q+8vDpL7lqd1vJowZOhPz10N5+++0Du3EGTa12IepGyeSPvA8a1QqvvXweeuih9l7Cj1V+4mXDoMFf91WMxd4RY2ao3aPidR1qsYH0ih/jdOWUblRc9/cc+HX5yzb6++qond8xMYPm/vvvH/oxOCvWDyQbl70pGbr0MZ/LC6eavCvXlzXN16cjr3ldeeDhx8r+5quQ3lLWNUNEg2Tthq1l45Zd5ROfvbnVX/F37y0zK9c1Q2hbbxg1+s98/pbywHcfLXsPHi2rm6GkN52FU708oy6o62+88cb2wZJeq2S300P1uc99rv1Lro96rN9SsNdbi2zpnd6K9BYRP3owGTTS661AH/lTG3pkffRVRTn1kU6DkPrf8Y53DNWlr16ykU7Q3gcdfsqjD7zrqE/x9FXS+0Z/ZHPVVVcN6Rw13vsum5qdEG0z3nWRd8hGemyR8XEZDui6+nPR9QcHeAzPAQcUFz7Lm/mAiRw0sYE6AJAsHXtvpNtEHfrZyGre/EVNDH1Nat5A9F/53vPgf5Y9+w+3g2RNM0D0RqPfXD7w4Y+2uo/8841l8dKVrb10Gjb66vUvn7mpfKPR7953qH0b0r84zV/YXR/1ey/0oPLbjB5qye6nh0rcJZdc0vrpYROkk596jr2GgD6XXnrpwFcPLfn0gGvAaCBI1qDQ5/rrrx/o5UM8fTS4FFdgmEgn2WOpPtUpf8nKSX7i8cAwaMR7L/DRcGKgiBMUX/lkJ14x8PN+RUgX9aoj5nU99rG+LFb0dY7zOjcb4BNzel3ostocNf04dUUbyRM5aFRcrQl+MWQzm4vTpY/5kOctmCrTM6vK8lUbyt5Dx8od995fdu09WJYs0/DZ3A6Rv3n3e1v+Xe+7pixo3oCOve6Sct6+w+1XJ9msaN5e/umTnylfvfe+smPP/ibW+vZfnM5uYlOT10Zur0l6Hh5spZd8+eWXD+z0UGmgMKT8bUD26jkPHW9H7qsHHVl2GgbIbqNY0vNwS9ZHAwVb2UmvvQaMcslOUH2qE39ia2jEa+pncEiHD4NMPVJ83tS0l43eaKgzxhFqPLUJsqnZCdE2410XeYdsvF5kfFyGA+qf9zD+wc3gMTwHHFBc+Cxv5iNM7KCpIR4OLuPR+R7ZeZrjTUI/d96i3o+2zRuIhseX7v5m2b57X/vWooGxYcuOcssdd5erPvCh9l+RNJT+6oory6f+9dbem0vz5iN8+GOfKF+66572//xA/2S+eMmKclYTm3w1eG362pJ9+DokGz1UejCpn4eUm00PHz8ia4joAeSm5KHVHl9xyIrpNuipUR/tZSfIDn/lFYgluxjfY2ODnT7wgHoYKJxtz549g6EjO9koBj3JQN1aXcbHZTgwiQ+2I/pJFuSrGLFedJGrydpzfo+LXvitDBr+n15p0PzkJz9pB82PfvSj8tRTT5XHH3+8fO9732sHjR4YfqPxw3Mo8TSAg8SGzAbuqxzK6Q2U/syzFpSFU41uZnXZ3ryN3PyVO1tc8b4PlHdd8/fl07fcXj5721fLH/3pW9ofd2X3J295W8tJ966rP9jayedTX7itHUwaSIsWL2tjk8vhNWiPrMGs31tcJ5m3HIGHirPFh5S3Iq2KBy/w0CIzCBSLeG7jesnkoV7ZSc/e357ko69+6AWP7fAzEBu4j86kj4aVBg73iGwUAx/qVSzORlx/QOI96LmJwRr5cRDvYWSt4oR4XiHWArLcslM8fIhbs4ePOvJlPlktzslnIgeNF9yF7IBC1ihAsyPnsuP0M+e1v6VMTa8oq9edW9593YfKJ7/45fLpW78ywOv/+M/K/AWL27eU6aWr2n+pesMb3zxk87GbbinHXn9pWdQMranp5WXBoiVN7LPbHOT3m9yhev33FcF9xPN1iYdKeoGHlDNr1QOvtxl9nYEX5MvbkcAgQVYuf7Df8573tDIPhj7eSwaNOH2904cHXgPSf6MRtNeQiA9GPIODetBpwOijNzXJ4mVDXsFrzLgsD7x6XNMD6d0mXlfOJWjPQEN2W/jIjaqXWJkOfeRkH2t1XVcs6b0mweWJHTQ0n2L9kPFAwii9gE1co973c04/q5w9f6odEOcsbr5CLV9b1m7Sj7xbypoG2s9rhkxvgKxoITsNknWbt/d+EN6wpf0tR9zCc2Ya22VtzDmnzR3kGwU9QP4VyXXieVvgoVIPBB5St9dQ0ke/a3gs8XrbQSdfHwQCD7b2Ua8Pe4FBg6zfhDQU9RGvQaeVQaV9/CgGZ4gfxZQP9Qi1msU7Bzh/vN8csom8943BqBiZfw3kdHhch+J6bB9OcMjYsdJf9Ni6jfPRBmS2Uac1059wbzTjNARIr4PThC7EWEz2U+ec2XzFWdgMk+l2SCw8Z2k7MOb30Rse+mfw3gABsl2wKNo2dg2vNyTFPOVVZ7wkJ3XUau46y6h+AD2Y/E4D8P1tPnB8dfq/9MB1IfbBY426N9C5jdt5Lb6PdjWQH8CrZq53V5yJGTT33XffyEHjB2FfO5w3Q6ARkR+FV54yp3mrObvMbYfNVDsk/jeY17zJKNac084qrzz5VUO5qI2Lydl873BeNwI8nPsQm99o9BcejtXtdfPAO2QT48uOISNkfoIGC/8qpfx6uxGHnniOLq4rl3SZryAfkOl8LxCnJmOfXYMIt89kIP+oq8WsQfZeU6wXZLmQ8Sc3tgIDxn21515wv4kbNFdfffWgaArnIPGwUV9DPLTzkRM83sJF55STTz29HTZnzF1Y5p69qMydd045a97UrCAf+Z4xd0Eb6+RTTisLFiwc5Bt1BuBniT5RJ3AziFd/NWT0cHfli7HZs/rNC1+LR+7LLrus/XrHR0OG/6bG62ZPPDiPX8sl1HTisxhdsWYDrz3TRU7XRWusyW0lY5dB+gjqiHGyGhxd+qgbJXsdcCfEoGH1htWa53z2F8Z9iO2AY9X/+NdJrzy1HQz6GqXfbE47Y145XThz/piY1/rI99Q5Z7RvSYo5NdX7H/vqQnbGLk5rdi50ma8gH5DpfC8QpyZjn12DCLfPZCD/qKvFrEH2XlOsF2S5kPEnN7bCbP7KRxvfYyOQjxVbtwFZbOdB1DvcNsuR8S5TPzm0TuygUXG1ZvghnHM5QxavlkMgpt5qXnHSKQ1OLSedPKcZFKe1bznHcUYFx23kc1LzVamN84cnlwULFw7i+43vf8Gk93NRa6y56wwR8Wb1m1ickPUy1gKy3LJTPHyIW7OHjzryZT5ZLc515VGPa3ogvdv4NRL8XNr7G0pWm8cCo+olVqZDHznZx1pd1xVLeq9JiHKNA+jim9jEDxoV7s2BZ69VNgA737tN1BMPOfqBqampMr/5qvP7L3tFednLTyov+4NhvDwg6uUj3wULFw3+Z0sFzpD9JazVIsQLGeHn872vce8gvtfEmtUlzvksh+uzGDXUanTIJrMTR65x8scY4+QehZhLsnO1HLFeZD9TF4iLbc0HnnsQDkgm1qhaXc89pHViB82oByn+xYSvNWJUgzI56oRRdQmZn/JnvKNWo1Dz7TpX1Lkcz5Gdy3O6b21fg8dhn9UWz4iNVtdTq2SPoz1/zX3vel8zXjG9DnFAsuf0nrlN1KGfjVx7K8mgmrLrl8HP5oj5vcfOI2Mf/UD0m8hBM07x2vuh48EyEBfbmg+8mu22QPK4jXY9Fy+uQi0OIJ6DmxGd2yhe5iOIH6XPdPEsNRvs0GuFc30N7hf5yAmj4gmyoQ6vwX2z2EK0df9RICa5u3RCV18jB2Js9qzZwK3FI3fXoPO62RMPzuNrP/E/Bs8G8XCui5DeG9WFGCtehCwGPuSJ+hriRQLKCV+L15Unizku8GUw1s4bec+p+qWvPUg1+DAGtbMorsfGN9p7raze32iPjfPRBmS2Uae15l9D7IPHGnVvoHMbt/NafB/taiA/gFfNXO+JGDT6j7Y0aL72ta8NDRoOWWtK5FjdXgfNfGQT48uOB0LI/MYB8cblunJJl/kK8gGZzvcCcWoy9uoB+67cXTKQf9TVYtYge68p1guyXMj4kxtbgYfBfbXnXnC/aON7bATysWLrNiCL7TyIeofbZjky3mXqJ4fXC+8cq1+XqPN1ogeNQAMouAs0AtSa4MCHPFFfg2xjPkE54WvxuvJkMccFvvz1q5038p5T9UvPw+d2XSCno3YWxfXY+EZ7r5XV+xvtsXE+2oDMNuq01vxriH3wWKPuDXRu43Zei++jXQ3kB/Cqmes9ThzZRH+t4vCP+xP+jSbKs4Ea73tiZTHFCfjEZjuyON505MjVEG9e2XvtzrPHx3snYOMr+5gnAjvFlC0yiLngvFZsiOGcI4vt+bWO6oHg+XyNcL8YI+Z1iEOvFVmr76XXeaPeY7ktduiirSP2cZTfOHGxiWvUx32sG/xOBs3zzz8/9huN4EMgNsZ1XYh+kmmKYsSHLGtYFsP33PgeF72Q1Tmq9phTyHywY9V5yO/27LO4wqh6ImL/kemB246KHWtyOcZDJy722SG7GHccRJ94f0jOzgPnK4g240C2qmXcM0a7OITiuRweB8Rapc/qd1/po83vbNA8++yz5cknnxz8vwr4zne+0w6a97///UMFZvDmxcaArBlCbJQ3J4vltuxrsQXFiDelI+aJOWM+l93W42jVDabV7R01HtR8PSeyc1EP53Y12X2AePXPbdF5fdpn9Wa9dy6LF+N2PdRCzNF1vWvnBOTT6meWDOC8LxFuB+fniGfCnn3m7xx8LX/WA/c5IQdNFzhcbCR7R61pQubvjUPn8IuJjV+AWhzxWUzXRy6D23VBMQRqw486Yg6vT3sQ9c7B12TPj8yeePDRz3XwILvhuS7uF3Ojk23UxXNgm0G2iuE20d5jxtgZRtmQz/Pik8n0A17wmpxnr1U2ADvfu03UT+SgUXEcNB7Wi4+Itu4/CsQkd5dO0M2Y1dGVL8Zmz+o3AHwtHrmjj8PrZk88OI9fyyXUdOKzGF2xZgOvPdNFjiERa3JbydlAAtJHUEeMk9Xg6NJH3SjZ63DeIZtsL+CXxY173VddsUAtpkOxJmLQPPzww+2gueOOO9pBo0P5ASQDuNqDLrgdnD+Q2QPt+8zfOfha/uwmznxinlhHZht5IK7Ga/WaYl6BnsQY3HD4ANkpZuzluPCYMbbHlC7WhDyKj3GB9Flu92cPslhuD5fVWwMxs1y1fKMGpNZa/izmbEBcj1OLGWuYyEGjIrNm+aFqg0Y22KHXCuf6Gtwv8pETRsUTZEMdXoP7ZrGFaOv+o0BMcnfphK6+Rg7E2OxZs8Fei0furgHmdbMnHpzHr+USajrxWYyuWLOB157pIseAiTW5reRRgyiCOmKcrAZHlz7qZmZmyv8ArxX8pZ0VdZ4AAAAASUVORK5CYII=;" parent="1" vertex="1">
          <mxGeometry x="740" y="401" width="282" height="48" as="geometry" />
        </mxCell>
        <mxCell id="cCBc7BO_u6sRVNhpNow7-2" value="" style="shape=image;verticalLabelPosition=bottom;labelBackgroundColor=default;verticalAlign=top;aspect=fixed;imageAspect=0;image=data:image/png,iVBORw0KGgoAAAANSUhEUgAAAPwAAAAyCAYAAAB4SbajAAAAAXNSR0IArs4c6QAAAARnQU1BAACxjwv8YQUAAAAJcEhZcwAADsMAAA7DAcdvqGQAAAASdEVYdFNvZnR3YXJlAEdyZWVuc2hvdF5VCAUAAB8VSURBVHhe7ZzZz93VdYb7T1SRqg7qmKZJipkhAzSEyQxlSAgYz59twGYKs6Fq1bQNs9SL3lRw00EEO71rgQtAApqGKRgwZrQB23gG2yFtVBpA2j3PMc/5Xi/2sSEKPlGEpVdr7Xe9a9j799vnHJs2v/b222+3XwR2797ddu3a1Xbu3NneeuuttmPHjrZt27a2efPmtmHDhrZu3bq2Zs2a9sQTT7QHH3yw3XLLLW3GjBnt0EMPbQcffPDQshaHHHLIkDvooIOGljVAC/DRmWv8sMMO6/pAvX72wRLLmvIZxwpm0zeG1nz52scexnraygs4eWNYOWaSs0/W8UyyBoBHb3+BjprErYvt+UIOWFPfONZZjNWZXGPNybW2zqyWuLHsnXX1zUGnj1WfVl3myvfW9laffPYD+OjyOcq7Nsd5MmY8czI+0QvPwDl0HRj0LrwaddbAymV8HKxrPr51jLEWWS/1VeMcQl6N/SpSS23z7Zl9q++89jaGtV/O5bmmDltzscJ8Y2q1+QErn/UyRi38+kHS02Cd1f5y1s+Y60Tqsgd8r8a4WnJpK1Kfs6vPmL4xL7ozweGrdY0OP+vpE69wjgN24deuXfuhC89wfrMwbG4KZCz53ByoB+fmyKWGh0MMa2x/NYzj+2JmXdZq4FyLOjs2fXuqx7dO1eFr2Q/98e2RvnUTVVvjCTWev5xrz8A62NRZJ+HsxnPGWs8YnOcMzE+ddXtxbfpYc+Ty/XDtPKmTc69Yoc6YOT0r0DJLvksJuNxj6rDMqQYu96VG3zoTufAPPPBAu/nmm0eHk4Mllxv0cFzjwxnDphafA8kca4DUGbeGoL96IUec/NoD5BoNyPr6AC01qFvjxOSAdfBrT/XuKfMSqZWzT+2n1ppy6GqvRGrTz3MwVjn5XKMRrrMucD/4Wdc84/rqRPL5LOSyPtrMBXDGqj4/QOTUqLMPunzver1ArVVhvcod8Av/+OOPjy68Q+QmkmPjxtyA64R5xvXN8dDkWdvDGDZ12ITxjOHnXNherr2Mu66wP8ha2Jyt5qvLPsbksFnPOL6oGnN5Du4drs6JNe7L7VotvjBGLZE1gPWNG1NnjmtszZXDose3Ts2xh9qar05NxoAfEmpyXesJOWdLXj/7AdZVm3rX9qzcRC98HQ44uIPWmL4bz7iAqw/GXP1E6szNB1aRh15zswdrbH1IXIqqY43NvnDuQ049llitjVa9OutXTcI+OQuWeYzvK9eYM2U9Y1i1wj7Cfjkzljy4WrfWsLd5WHOzpn6vjn5aeZA9XNe6rvVdy+knMqdyvDOV46zs7Ty+W8xR32G4iV94D0j76Qv2q/WCYdVaJ/copy659InZS06w9jmqrbrkqtYzZI0PZwybWnzmyBxruC91xq0h6K9eyBEnv/YAuUYDsr4+QEsNn4nxiV74PBg3k4O73teDxpKLpZ51PIzsoZ+5WOpbR43W2vgCzj7AXkA/47VGrSeX+T19apwvNXD2sn/1BeusAVfXqe3xxtK3v2Btf2AP9fqZZw5+7kmYl3XQ4dvLnKqT90KZI7JWzmq+euPyvqO+S1rrYc2vvvUEnB9KzqQGn3rymaNuX/GJXvgcyg05nJyAy3XG3Yy5an2ortX4oPRdZw0fYI9jTT0sIB8+6+DnN0lCrvbwJVGTsexnPNf2w+aeWQt0cJ6LudkHnbnG/ZaoPlCvn32wxLKmfMaxop4BFq358rWPPYz1tJUXcPLGsHL53O2TdTyTrAF8HvYX6KhJ3LrYni/kgDX1jWOdxVidaeI/6R0EP4eVH7euG2ZjbjCtudrKZwwr1GjJA/mQWGv1BeucA856aqyjTV6kHmQf8+C8KMYzhu31TV4Om0hNwjixrFGRPD7aeiby6ogD/PpO9Prp596FWtCLp8YZ6nzJCzlgrj2yhs8ldcZZZ0w+49bF1h74xlgLuIwD39uJXvgc1g25qYzhj7MCLQeRFzIBR9yDTB3WT3HjWpE1sw48qLMSz72oy1zi5pmb+oyRUzmA1r0kV32sfQVr9p0zVS3WOQFc7Qc8v6xRAW8919Xqo6kzyYsaTw5fXi61WHgs2oyn3l5ZG+hbA3iW1rN22gq1GacOZ2wvYtQVma8GZCz5XP9S/KTHOpCcftocnEPwsFxnHr5rfddy+onMqRwPonI8GHs7jy8/c+SDA+5FrXVyj3LqkkufmL3kBGsvptqqS65qPUPW+HDGsKnF92WvNdyXOuPWEPRXL+SIk197gFyjAVlfH6Clhs+k1pED1sGvPdW7p8xLpFbOPrWfWmvKoau9EqlNP8/BGNzEf9KLuiEfisMaSys4kHzxQWrTR5u8oP8RRx7bvnLMWe2Sa99uF1+zuy27cldbdvnOtvTSN9tFF+9oF120o114wbZ2weKt7YKFW9qS+Zva4jlvtMXnb2yLztvQps5Z36bOfr0tOPPVtuDP17WjDp856LX3A677dB4fUJ1P3zx1+K7VZK5xfKFWOBO21vcDQB289SsHrJMakD17M9SYcdbYvPT2yDh6c7N31lKfcdbJ1f1av8I84/rm5Pyu7WEsZ0ODTRjPGH7Ohe3l2su4azHxb/h60Pq5mRwc62aABwfwiYt6aKmrPJf9/Kl/H1z2Xe3iq3uXffuey75o/GVfGJd9/qlr25yTV7Vjjlo0qL/3wwL67iHnzX2gybWcuZwfsB4ffFlbuMZSQz57VB115dWZl7HkMx/kvK4BudSo8xrbXw3j+NTRty5rNXCuRZ0dm7491eNbp+rwtfkLwh7pWzdRtTWeUOP5y7n2DKyDTd3E/w4P6uGyzoPBh2dwN6XOHLVZZ5yfkOeb/eJf4GWfN/OVNu+kl9v5X3+iHX7wiR+aLXvn/ty3D82HJWdOWi8NuWq01sYXcPYB9gL6Ga81aj25zO/pU+N8qYGzl/2rL1hnDbi6Tm2PN5a+/QVr+wN7qNfPPHPwc0/CvKyDDt9e5lSdPM9cHyuyVs5q/sQvPEP6ieyG9B1S3xjWTQA3Bjxg4eaNpy75S6798ce77LMGl/3cfVz2E19uc49/qc057oU259jnhz2c25767iHnzX2gybWcuZyf3ypwn37Lf/otby1j6iZ+4XMDDuvBGRepz40CH7CcNVLjIdgnY3nZV/zb/7QVK/+7rVgxwN0/ad9fOcDArvze223lXT9uK/91d1vxL7va39+4vV279I12zYUb27JZr4297LO/umavXs7pHozpJ+TH5ea3uzF1vX2ah8+ZEffbInOFa/Px0VeutxcsdbO281a9s5qDzRc651YjL1draq3Xi2fPrKVmnI91L3JZy9ldo8lcZ0lN6nLW9NWRkyCmBfYXxif+d3g34aB1aNdqfNmAG8k66OHlzMdmHJtcfrNv3/7+AO+17dveazsGdveu96ex8/22a+d7Qzx430/arX+1pd36l1va1YvWDy77y93Lfv6XVw97MAdwPmcRzmQc6+zy1rCOcfS+gK4zjzVa66ZOrdaa2KwpfC6ZV3sbQ+szM1b3oRao00dLDTTG9IU1ieXe1Fd/fxr7ZV9nZo3GGurMhwc5k3qgxlyhDt85UgNX+wPXWqA26+h/Ihf+zTff/Fh/h8/BPBTgwdS1m5OXM+5BaNNHzwtY46Of8cvKz/gFW9q3l21pN1y1td1wxZZ2/eWb2/WXbW7LL9nUli97oy2/aEO77oL17drFr7eLzl7bFp/2clt8yktt7p8NLvtXBpf9S6vbrKNWj3ozn7PTP+fXxwo07sl16oyrkXd/+OqBvGuhLvPwjVXdvnyR/dNXp1VLP3sa7+mtpY4Ll7re3ORoiWdM3xoCDq25coCezmG9jO+LB+Ya00/Ij8v1Q7b2UVP3CTfxC89ADKYvGM5Be/HUeADo5IzLCzlgLnbvyz646B9c9iXzNrW7/nl327bl3SG2b3u37Xxr8A1f8eZ77Qf3v91uunpDu+nK9e3q2Ws/uOzPtlmHPzvsQX/72ttZ5DMOfJlTr49l3dsba+OZB5xDjaharIDPnsA6AJ54cuDee+9t11133dCvetGL6duz1gVwzguynn4ideb67dyDvUHNzR6ssakH+csGmIfNvnDuQ049llitjVa9OutXTeITu/Dbt2//yP9oxyC54d7g4+JY4aGozZyMq5Gn3rjLzj/Q3fVP0xf+ze3vdi87+N4/bh9e9hu/PcBlr40u+3mHPj3sk7Po5zzyGzdubA8//PBeOuytt97a+EOMmYH5ankW5JuXZwCuv/764bPwDx/M1E2NZ4PtPQttAg4t/0tG2f+dd95p991332gO6xm31jge5Nkkn5Afl/vzfBu65nIS95dh5grX5uPXC4/f2wuWulnbeaveWc3B5q+NnFuNPOsDfuEfe+yx0YV3UyA35YAVHoqbQCtf89Ov8YSxiy4cXPYl05d98eCyX3v54Cf86Gf84Cd852f8tVOvjX7GLzr5xfgZP33Zz52xaq9Zsq88+9D3wvsg4QGXibPmEmWuNe+8885hjHxz1FALSz615W+//fa2cOHCYZ8VK1YMn5O1M99zzm8mkPsAfHjYn1jO34Oz1x7mYbM+vmu05qe2l+PcyY9bZx0491GtudrKZwwr1GjJAz4ja2n1BeucA856aqyjFZ/ohd+6devYC3/TTTeNNuKwORwx1nWzVYsV8HkAwDoAnnhy8vWy882++un/HX2z7+RbfMw3uz/j+Wa/5MwX26wjuezPjC77uX/61F69nE8/Ae+FZ07m9WXlMnmhuZxw7hfAP/fcc0PrHo2xXr58+fBbXQ7ktxA9yWWNPi83HL2yJkCHJQbywqNVr67OpSZhH7VaL4R7xq/ImDNlPWNYtcI+wn45M5Y8uFq31rC3eVhzs6Z+r45+WnmQPVzXuq6xE73wDJCbzIFBHg5wY8ZT1+PdsHWtba/EBYu2TF/22W+0RbM2ttWrPrjwm99tO7aWn/LDyz7gBsif8fOPfe5Dl/1bX3hytAf61305L3PwknFhuHxw/grC9yc9l53zlacGl5nncNtttw3z80y01OYDg79X25cYICf/0L93eR955JHRbIC/IvDXAv7Q/5577hnmWBufXybWIJcZ1DuLcfy8aOzDtZrec+ztN/26X3zrVB2+lvOnP7490rduomprPKGGHs6Ta8/AOtjUWSfh7MZzxol/w/swARupm8O6aTng2ofhJtUCHlbmAnxy4K2NXfLz/Iyf+VKbGvyMn3/c83t+xne+2bns53zuidHc9tTHOp8aLomXyvngucz8wefMuZBq+Gbn8nhJ4QG1iWPJu+OOO4YXjnwu78yZM0f9WZOLnjPKWs7hhWc9NTU1rMUlJ7Z48eLhczfHvTgn/wOmxNERgyefmdQ7i2ugX22N+y6wxnfPWVMtHEAHl2dkjdTWOugzxtozSh0x4Br4q0qgdw5gjrWBH/z2Bebip9XPLwvrTvzCAwd0Ax6ca4fN4eWwHoJ1ao491NZ8rN/sH+1n/OBb/arpn/E3LFz74cv+xenLfs4fPT6aJedyJuH8XJL8FlXPBeEPeyDOJSfuxTvttNM+dOHJc8/6gF8J6MjjX9HpTc28rP5aYE0OHBouPWs+YHiu1ucF4/JmDXy/4enFLwJ84w899NCwhusKeM/J8wH0lFeHhXNWLRzIi2ZMXV441vrE0zeW+cBZgDMI1lkndT3eHta1tr0SVVtr1NgBvfC8oHnhHdqh8nC0Dm9cv25ETn1adZkr79qf8dcs41v9jXYd3+pLN7blFw6+2ZcMvtkXDb7ZF77Wrpn/art67ro2ddKLbeqEF9rC49a0+ceUn/Fc9s9PX/Zv/MFje81T++deAZeEiyWnzguPf+qppw4vEJedC8jZUscLb01hnZyBNc/FC+eFh89axMxDA/TpbX009QMHH44Yf7DWr3rnM45Nrgd09uoBDZYawEtvfeewh3nyagTrzMPaR94a1jFuf7XWN481WuumTq3WmtisKfy1k3noJnrhHcqDcdO5WXk1Di/U4XsIqYEDaq3nWstlnzp3fZv65utt4VmvtQVnvNqe/dFP27ZNP2tbB9i2+Wejv7Pv2rEHOz/Ady9+tX136br2dxeubXMPf7pc9kfbN37v0dFs7oHDp7d7c0YsFyAvPEDP5eAPPOA8+ZnMxfdncv5nMXtlD31r8y/76KnvhVfjfxXwjODoiQ6Oy+6Hhb385YCPBj8vvP9N3nrUsgYcsJaa1KfGOVMD57xY+fQF66wBV9ep7fHG0re/YG1/YA/1+plnDn7uSZiXddDh28uc1E38G54XLQfKgUE+gOq7GfOMZR15a2YN18TqZV9w+rr27JM/HV52wMXuXfad2wcXfuna4WX/2yVr29Ljnh1e9m962X/30Xb27/xwOEevd87gjFwSLgK8GmJcQP54ZosWLRquvWBweeGB+cT5hz3q8qsADstzgiOO5R/g8MEpp5wyrM8lRu8HDjrW/Dznj3HrOQ/IC+/f4ZmbGDwfVljW1GBv+J4FcI1lP1pjafeVJyfP2nqujeubpw7ftZrMNY4v1Apnwtb69a8W8NavHLBOakD2zBkOyIVfv3792AvvcPiu0yYvUg/cuDq5fHlqDJt16mWff8radsXc19rV8weYt274M/6q2WvbVbNeaVed+3K78pyX2hVnv9iuOOuFNv/oZ9q8I59u8w5b1b3sZ/3WD/aa31n0mYOZnIdLUv/wbeo/2uUvI7RccnO5PF444rl3LiTPgEvGH2z+JCfOs+QPfxeHv/vuu0d66nJp/TAiZ+XKlaMc4vy93v5o8JnbWfxFwh/y+IVhLWd1Hi18xt0rVl8NvjHWAi7jwMuVen0sa+qCrOcc+JkHnEONqFqsgM+ewDoAnnhy8vpVL2psohfeA8jN4ueDqMNj668CL7aajPUOPtf2q5d93skvt7knvNTmfv3FNudrz7fZxwzw5T3/RzWXnvFi27rh/9qWDe+0LevfGXzLD34BbNuDv1nwUvvOvBfad+Y838777GPDy37Wb/zn6JJmX2fB9wycl5gaOPmMY0U9Ayxa8+VrH3sY62krL+DkjWHlfE749sk6nknWAPDo7S/QUTPfD2zPF3LAmvrGsc5irM7kGmtOrrV1ZrXEjWXvrKtvDjp9rPq06jJXvree+De8g+ZDBPh5MGrxzdGmBnhQtUau6wEtOGNdW3Dafi770Xv+09s//MWG4UUXXnbgZf/r2c+3JUc8ObzsZ37mkb1mqnMD115c92pecmr3FccK96w2czKuRp56atUDeddCXebhG6u6ffki+6evTquWfvY03tNbS53vn1xvbnK0xDOmbw0Bh9ZcOeAHG5z1Mr4vHphrTD8hb+7EL3wOWodjQ7kpY3A+kDz49AXrejB1DeZ/xMs+67Bn2nmHrGqXn76mXXbqmnbpzOfaZSevbped+Gy79Phn2uzPP97O/9xjbdZnHx1d9jN+/aFRL+fWd517Es5oLhYdvns1p+rk+QDRx4qs5Xngm6/euLzf2n4waa2HNb/61hNwXjRnUoNPPfnMUbe/uLGMuxeQZwPUoVFnDaxcxsfBuubjW8cYa5H1Ul81ziHk1divQs1ELzwDuMkcOjdrzBdNTrDOXwe1TuWq1gM6+ohT2uyTVu257Md52dd0L/u5M54a/qe3c/jX+D/Ov7P/sJ392//VzvrNPT/jueynf+Y/2uFfPGGv/j50IUfcvbp2D7lGA4ylDqClBnVrnJgcsA5+7akejbx5idTK2af2U2tNOXS1VyK16ec5GKucfK7RCNdZF7gf/KxrnnF9dSL5fBZyWR9t5gI4Y1XP85WXU6POPuh8xw7YhX/llVdGF/7+++8ffcMzjIOD+pKOu+gCnnytPJuTV4eF8yDyQGbMOKR99YipNutrT7Q5/P+yj7vsBz3VvvUxLvvRf3LOqAczOCe9BWtnTIzjycFOzz69z4qqrTVqDJ51xlKT87q2Vq7lzOW55rPluWZt4RpLDfnsUXXUlVdnXsaSz3yQ87oG5FKjzmtsfzWM41NH37qs1cC5FnV2bPr2VI9vnarDn+iFdzAPwOG0wmG1cHVTda2uZ2ucg9+zPqR96YhT93PZfzR92f9wcNl/v3/Z+Rl/2BeOH9bN2dyD+2UNiI3bg8gPP4DelwaYY23gi2pfYC5+Wv18ua2rn7nUROvaePaSh8tZ3bM1kgPmWjvrZH9sXhx1OZNa812nXp881rVGrs2VlzOOdY1NHz37rXFrgdSqM8aaHrU/yGcNb15yE/+GFw7voA6LNY6dvpzTB2MN4NoNJs9aa12hlrix7J119c1Bp49Vn1Zd5sr31vZWn3z2A/jovDjJuzbHeTJmPHMynroeiDundaoPrJMzZAz08tXXPP18J9R4FoA6GcNaX858+xnHJteD9ccBDZYawNms7xz2ME9ejWCdeVj7yFvDOsZ/qS58rhlSuHYDatisa2xqgXF9dSL5+tLgZ320mQvgjFU9D1VeTo06+6Cjv7FeL1BrVVivcpmfnL3k1RlTlzF8ckTmGnOtxjq5zjrW8BkANcDa1sDKZb4cIL/G6n6043z0zCSf81adc8EB1+7J/agFvCOZC/B9F6wtX2vLqyFmP61aNKwnfuEd1KFyODeJ1c/NGWMt4DIOfGip18eypi7Ies6Bn3nAOdSIqsUK+OwJrAPgiScnr1/1ohfTt2etC+CcF2Q9/UTqzPXl6sHeoOZmD9bY1IP6q8U8bPaFcx9y6rHEam206tVZv2oS9slZsL5n9sGvyJgzZT1jWLXCPsJ+OTOWPLhaF0z0wjOIwzB8PtwcWOTg6vTRUgONMX1hTWJa83v+/jT2y77OzBqNNdSZDw9yJvVAjblCHb5zpAau9geutUBt1hnnJ3o8HLXrM3APvW8zdWqtA3wXMmYc6z7cG7y9sod+5mKpbx01WmvjCzj7AHsB/YzXGrWeXOb39KlxvtTA2cv+1ResP/ELv2nTpv3+pGcQN+PmGdjNpHUT2spnDCvUaMkDvKCsraXVF6xzDjjrqbGONnmRepB9zIPLF7LGsL2+ycthE6lJGCeWNSqSx0dbz0ReHXGAnx966mo//dy7UAt68dQ4Q50veSEHzLVH1vC5pM4464zJZ9y62NoD3xhrAZdxkO+ten0sa+qCrDfRC88gHoQD4ffWbkR98m5IDh+d3xLJuzYHnbwx45mT8dT1QNw5rVN9YJ2cIWOgl6++5unnpVKT35jUyRjW+nLm2884NrkerD8OaLDUAM5mfeewh3nyagTrzMPaR94a1jFuf7XWN481WuumTq3WmtisKXwumVd7G0PruRir+1AL1OmjpQYaY/gH9MKvXr16rwufQ2vhcvjcpDogr06kNv18WMYqJ59rNMJ11gXM4zrrmmdcX51Ivl5W/KyPNnMBnLGq56WRl1Ojzj7ofElArxeotSqsV7nMT85e8uqMqcsYPjkic425VmOdXGcda/gMgBpgbWtg5TJfDpBfY3U/2nE+emaSz3mrzrnggGv3NLELf+ONNw4HYMg8AD/xHFSeNTpzsGxCXd2oNeHlak2t9Xrx7Jm11Izzse5FLms5u2s0messqUldzpq+OnISxLTA/sI4M4Nax7xaC03Nx8KZr49GXxA3JuTQ4mcevjF6mWMMHuB7SVwD69V18umT65oeno2c8R5nDf3UicxLDlCnzp6arOm6auHTn+iFdzgPKDfHwfqpZMyNjdscyFjyvbUvjDVThwXOljDHmGv1vVpZRz/zK6jh5VGT1j6pV2vcGH72yjzrEMNy5tjUJ5LHCtfmuk4+tazBuLhc6nKdcWLm6MN7OV2rcQ/6dU9Y340ex5p6WOB+sw6+HzjqhFztUZ93xrKf8VzbD5t7Zi3QTfzCO6xDOmjdjLEcXm3GzMV++vLusb+qLy+c52Ju9kFnrnHq9nygXj/7YIllTfmMY0U9Ayxa8+VrH3sY62krL+DkjWHlJn7hHdwHzFBYB3XoHDw3pLaX4wNNftw668DRA79ac7WVzxhWqNGSB5iRtbW0+oJ1zgFnPTXW0SYvUg+yj3lwvqzGM4bt9U1eDptITcI4saxRkTw+2nom8uqIA/z6TvT66efehVrQi6fGGep8yQs5YK49sobPJXXGWWdMPuMT/zs8A7s5BusNmTF8No3vh4R86uSsbS14OWztkb5zsNavIOYcqfHFcj5nFvbAWoN84HzEzVeXvH5a8tW5JgbSF3UukPWw5mXd3G/V64+bHdRc4b6Sx0df95zaehFyX2py/87W87OOfq6pI2/NrOG67lENNuPOyjrr4Od7pC/gtOaYp6VmzjHRC+9gDKJlOKxcHbjG5VKX64wTM0cfngM3rkXjgeq7zhr1xUqONfWwwP1mHXwepPqEXO3BOjUZy37Gc20/bO6ZtUAH57mYm33QmWs8X8jey5m52QdLLGvKZxwr6hlg0ZovX/vYw1hPW3kBJ28MK5fP3T5ZxzPJGsDnYX+BjprErYvt+UIOWFOf+MR/0rMphvEBwmEdNA/HmHzG3RBWXw2+MdYCLuMgD1e9PpY1dUHWcw78zAPOoUZULVbAZ09gHQBPPDl5/aoXvZi+PWtdAOe8IOvpJ1Jnbv0gSNgb1NzswRqbepAXDpiHzb5w7kNOPZZYrY1WvTrrV03CPjkL1vfMPvgVGXOmrGcMq1bYR+zpd3D7f3CS3F4z5laXAAAAAElFTkSuQmCC;" parent="1" vertex="1">
          <mxGeometry x="40" y="400" width="252" height="50" as="geometry" />
        </mxCell>
        <mxCell id="cCBc7BO_u6sRVNhpNow7-4" style="edgeStyle=orthogonalEdgeStyle;rounded=0;orthogonalLoop=1;jettySize=auto;html=1;exitX=0.5;exitY=0;exitDx=0;exitDy=0;entryX=0.5;entryY=1;entryDx=0;entryDy=0;" parent="1" source="cCBc7BO_u6sRVNhpNow7-3" target="cCBc7BO_u6sRVNhpNow7-2" edge="1">
          <mxGeometry relative="1" as="geometry" />
        </mxCell>
        <mxCell id="cCBc7BO_u6sRVNhpNow7-3" value="Meta&lt;br style=&quot;font-size: 12px;&quot;&gt;Llama 3" style="text;html=1;align=center;verticalAlign=middle;whiteSpace=wrap;rounded=0;fontSize=12;" parent="1" vertex="1">
          <mxGeometry x="136" y="640" width="60" height="30" as="geometry" />
        </mxCell>
        <mxCell id="cCBc7BO_u6sRVNhpNow7-8" style="edgeStyle=orthogonalEdgeStyle;rounded=0;orthogonalLoop=1;jettySize=auto;html=1;exitX=1;exitY=0.5;exitDx=0;exitDy=0;exitPerimeter=0;entryX=0;entryY=0.5;entryDx=0;entryDy=0;" parent="1" source="cCBc7BO_u6sRVNhpNow7-5" target="cCBc7BO_u6sRVNhpNow7-1" edge="1">
          <mxGeometry relative="1" as="geometry" />
        </mxCell>
        <mxCell id="cCBc7BO_u6sRVNhpNow7-5" value="Local Server" style="verticalLabelPosition=bottom;html=1;verticalAlign=top;align=center;strokeColor=none;fillColor=#00BEF2;shape=mxgraph.azure.server;" parent="1" vertex="1">
          <mxGeometry x="525" y="418" width="50" height="15" as="geometry" />
        </mxCell>
        <mxCell id="cCBc7BO_u6sRVNhpNow7-7" style="edgeStyle=orthogonalEdgeStyle;rounded=0;orthogonalLoop=1;jettySize=auto;html=1;exitX=1;exitY=0.5;exitDx=0;exitDy=0;entryX=0;entryY=0.5;entryDx=0;entryDy=0;entryPerimeter=0;" parent="1" source="cCBc7BO_u6sRVNhpNow7-2" target="cCBc7BO_u6sRVNhpNow7-5" edge="1">
          <mxGeometry relative="1" as="geometry" />
        </mxCell>
        <mxCell id="cCBc7BO_u6sRVNhpNow7-9" value="Bruno_child_offers.pdf" style="dashed=0;outlineConnect=0;html=1;align=center;labelPosition=center;verticalLabelPosition=bottom;verticalAlign=top;shape=mxgraph.webicons.adobe_pdf;fillColor=#F40C0C;gradientColor=#610603" parent="1" vertex="1">
          <mxGeometry x="861" y="170" width="40" height="40" as="geometry" />
        </mxCell>
        <mxCell id="hDu2MGbcMj-w8NL_doau-1" value="🤗" style="text;whiteSpace=wrap;fontSize=30;" vertex="1" parent="1">
          <mxGeometry x="103" y="710" width="50" height="70" as="geometry" />
        </mxCell>
        <mxCell id="hDu2MGbcMj-w8NL_doau-3" style="edgeStyle=orthogonalEdgeStyle;rounded=0;orthogonalLoop=1;jettySize=auto;html=1;exitX=0.25;exitY=0;exitDx=0;exitDy=0;entryX=0.5;entryY=1;entryDx=0;entryDy=0;" edge="1" parent="1" source="hDu2MGbcMj-w8NL_doau-2" target="cCBc7BO_u6sRVNhpNow7-3">
          <mxGeometry relative="1" as="geometry" />
        </mxCell>
        <mxCell id="hDu2MGbcMj-w8NL_doau-2" value="Hugging Face" style="text;html=1;align=center;verticalAlign=middle;whiteSpace=wrap;rounded=0;" vertex="1" parent="1">
          <mxGeometry x="143" y="720" width="90" height="30" as="geometry" />
        </mxCell>
        <mxCell id="hDu2MGbcMj-w8NL_doau-5" value="Chat Bot" style="verticalLabelPosition=bottom;aspect=fixed;html=1;shape=mxgraph.salesforce.bots;" vertex="1" parent="1">
          <mxGeometry x="851" y="653" width="60" height="57" as="geometry" />
        </mxCell>
        <mxCell id="hDu2MGbcMj-w8NL_doau-6" style="edgeStyle=orthogonalEdgeStyle;rounded=0;orthogonalLoop=1;jettySize=auto;html=1;exitX=0.5;exitY=1;exitDx=0;exitDy=0;" edge="1" parent="1" source="cCBc7BO_u6sRVNhpNow7-1">
          <mxGeometry relative="1" as="geometry">
            <mxPoint x="881" y="640" as="targetPoint" />
          </mxGeometry>
        </mxCell>
      </root>
    </mxGraphModel>
  </diagram>
</mxfile>
